<svg width="100" height="100" viewBox="0 0 100 100" fill="none" xmlns="http://www.w3.org/2000/svg">
<g clip-path="url(#clip0_9_170)">
<path d="M100 50C100 22.3858 77.6142 0 50 0C22.3858 0 0 22.3858 0 50C0 77.6142 22.3858 100 50 100C77.6142 100 100 77.6142 100 50Z" fill="#1275B1"/>
<path d="M39.4331 30.288C39.4331 33.2084 36.9016 35.5759 33.7791 35.5759C30.6564 35.5759 28.125 33.2084 28.125 30.288C28.125 27.3675 30.6564 25 33.7791 25C36.9016 25 39.4331 27.3675 39.4331 30.288Z" fill="white"/>
<path d="M28.8982 39.4629H38.5631V68.7501H28.8982V39.4629Z" fill="white"/>
<path d="M54.1238 39.4627H44.4588V68.7499H54.1238C54.1238 68.7499 54.1238 59.5299 54.1238 53.7652C54.1238 50.3049 55.3053 46.8296 60.0194 46.8296C65.3469 46.8296 65.315 51.3577 65.29 54.8659C65.2575 59.4512 65.335 64.1309 65.335 68.7499H75V53.2927C74.9181 43.4231 72.3463 38.8752 63.8853 38.8752C58.8606 38.8752 55.7459 41.1565 54.1238 43.2202V39.4627Z" fill="white"/>
</g>
<defs>
<clipPath id="clip0_9_170">
<rect width="100" height="100" fill="white"/>
</clipPath>
</defs>
</svg>
