<svg width="26" height="18" viewBox="0 0 26 18" fill="none" xmlns="http://www.w3.org/2000/svg">
<g clip-path="url(#clip0_1_170)">
<path d="M1.35181 18H24.6482C25.3971 17.9578 26 17.3344 26 16.5797V1.42031C26 0.642187 25.3641 0.0046875 24.5822 0H1.41775C0.63587 0.0046875 0 0.642187 0 1.42031V16.575C0 17.3344 0.602898 17.9578 1.35181 18Z" fill="#FEFEFE"/>
<path d="M11.1819 10.7953V18H14.7993V10.7953H26V7.19531H14.7993V0H11.1819V7.19531H0V10.7953H11.1819Z" fill="#C8102E"/>
<path d="M16.0051 5.82656V0H24.5917C25.1851 0.009375 25.6938 0.379687 25.9011 0.9L16.0051 5.82656Z" fill="#012169"/>
<path d="M16.0051 12.1735V18H24.6482C25.2181 17.9672 25.6985 17.6016 25.9011 17.1L16.0051 12.1735Z" fill="#012169"/>
<path d="M9.97611 12.1735V18H1.35184C0.781909 17.9672 0.296764 17.6016 0.098938 17.0906L9.97611 12.1735Z" fill="#012169"/>
<path d="M9.97611 5.82656V0H1.40836C0.81488 0.009375 0.301474 0.384375 0.098938 0.909375L9.97611 5.82656Z" fill="#012169"/>
<path d="M0 6.00002H3.60326L0 4.20471V6.00002Z" fill="#012169"/>
<path d="M26 6H22.3779L26 4.19531V6Z" fill="#012169"/>
<path d="M26 12H22.3779L26 13.8047V12Z" fill="#012169"/>
<path d="M0 12H3.60326L0 13.7953V12Z" fill="#012169"/>
<path d="M26 1.52344L17.0272 6H19.0337L26 2.53125V1.52344Z" fill="#C8102E"/>
<path d="M8.95399 12H6.94746L0 15.4594V16.4672L8.97283 12H8.95399Z" fill="#C8102E"/>
<path d="M4.95507 6.00464H6.96159L0 2.53589V3.53901L4.95507 6.00464Z" fill="#C8102E"/>
<path d="M21.0214 11.9954H19.0148L26 15.4782V14.475L21.0214 11.9954Z" fill="#C8102E"/>
</g>
<defs>
<clipPath id="clip0_1_170">
<rect width="26" height="18" fill="white"/>
</clipPath>
</defs>
</svg>
