<svg width="60" height="60" viewBox="0 0 60 60" fill="none" xmlns="http://www.w3.org/2000/svg">
<path d="M0 3.28125C0 1.46907 1.46907 0 3.28125 0H56.7188C58.5309 0 60 1.46907 60 3.28125V56.7188C60 58.5309 58.5309 60 56.7188 60H3.28125C1.46907 60 0 58.5309 0 56.7188V3.28125Z" fill="white"/>
<path d="M31.0809 11.0269C34.4348 11.0269 37.3828 11.796 39.9249 13.334C42.467 14.8508 44.4324 17.0511 45.8209 19.935C47.2308 22.7975 47.9358 26.1728 47.9358 30.0607C47.9358 33.9487 47.2308 37.3239 45.8209 40.1865C44.4324 43.049 42.467 45.2493 39.9249 46.7874C37.3828 48.3041 34.4348 49.0625 31.0809 49.0625H15.9885C15.2621 49.0625 14.7388 48.9023 14.4183 48.5818C14.1193 48.2401 13.9697 47.674 13.9697 46.8835C13.9697 46.0931 14.1193 45.5377 14.4183 45.2173C14.7388 44.8755 15.2621 44.7046 15.9885 44.7046H19.5773V15.3848H15.9885C15.2621 15.3848 14.7388 15.2246 14.4183 14.9042C14.1193 14.5624 13.9697 13.9963 13.9697 13.2059C13.9697 12.4155 14.1193 11.86 14.4183 11.5396C14.7388 11.1978 15.2621 11.0269 15.9885 11.0269H31.0809ZM24.3839 44.7046H30.3439C32.886 44.7046 35.097 44.1492 36.9769 43.0383C38.8568 41.9061 40.3094 40.2505 41.3348 38.0716C42.3602 35.8713 42.8729 33.201 42.8729 30.0607C42.8729 26.9205 42.3602 24.2609 41.3348 22.0819C40.3094 19.8816 38.8568 18.2153 36.9769 17.0831C35.097 15.9509 32.886 15.3848 30.3439 15.3848H24.3839V44.7046Z" fill="black"/>
</svg>
